<svg xmlns="http://www.w3.org/2000/svg" version="1.1" xmlns:xlink="http://www.w3.org/1999/xlink" xmlns:svgjs="http://svgjs.com/svgjs" width="1920" height="1280" preserveAspectRatio="none" viewBox="0 0 1920 1280"><g mask="url(&quot;#SvgjsMask1016&quot;)" fill="none"><g mask="url(&quot;#SvgjsMask1017&quot;)"><path d="M1932 612L1908 636L1884 636M1764 612L1740 636L1716 636M1812 612L1788 636M1956 636L1932 612L1908 612L1884 612L1860 612L1836 612L1812 612L1788 612L1764 612L1740 612" stroke="rgba(207, 206, 215, 1)" stroke-width="4"></path><path d="M1734 612 a6 6 0 1 0 12 0 a6 6 0 1 0 -12 0zM1878 636 a6 6 0 1 0 12 0 a6 6 0 1 0 -12 0zM1710 636 a6 6 0 1 0 12 0 a6 6 0 1 0 -12 0zM1782 636 a6 6 0 1 0 12 0 a6 6 0 1 0 -12 0z" fill="rgba(207, 206, 215, 1)"></path><path d="M1956 660L1932 660L1908 660" stroke="rgba(90, 70, 219, 1)" stroke-width="4"></path><path d="M1902 660 a6 6 0 1 0 12 0 a6 6 0 1 0 -12 0z" fill="rgba(90, 70, 219, 1)"></path><path d="M1956 684L1932 684L1908 684" stroke="rgba(90, 70, 219, 1)" stroke-width="4"></path><path d="M1902 684 a6 6 0 1 0 12 0 a6 6 0 1 0 -12 0z" fill="rgba(90, 70, 219, 1)"></path><path d="M1140 588L1116 612M1596 588L1572 612L1548 612M1092 588L1068 612L1044 612M1500 588L1476 564M1356 564L1332 540L1308 540L1284 540L1260 540L1236 540L1212 540L1188 540L1164 540L1140 540L1116 540L1092 540L1068 540L1044 540L1020 540L996 540L972 540M1404 588L1380 588L1356 588L1332 588L1308 612M1428 588L1404 612L1380 612L1356 612L1332 612L1308 636L1284 636L1260 636L1236 636L1212 636L1188 636L1164 660M1308 564L1284 588L1260 588L1236 612M1164 588L1140 564L1116 564L1092 564L1068 564L1044 564L1020 564M1956 588L1932 588L1908 588L1884 588L1860 588L1836 588L1812 588L1788 588L1764 588L1740 588L1716 588L1692 588L1668 588L1644 588L1620 588L1596 588L1572 588L1548 588L1524 588L1500 588L1476 588L1452 588L1428 588L1404 588L1380 564L1356 564L1332 564L1308 564L1284 564L1260 564L1236 588L1212 588L1188 588L1164 588L1140 588L1116 588L1092 588L1068 588" stroke="rgba(221, 212, 48, 1)" stroke-width="4"></path><path d="M1062 588 a6 6 0 1 0 12 0 a6 6 0 1 0 -12 0zM1110 612 a6 6 0 1 0 12 0 a6 6 0 1 0 -12 0zM1542 612 a6 6 0 1 0 12 0 a6 6 0 1 0 -12 0zM1038 612 a6 6 0 1 0 12 0 a6 6 0 1 0 -12 0zM1470 564 a6 6 0 1 0 12 0 a6 6 0 1 0 -12 0zM966 540 a6 6 0 1 0 12 0 a6 6 0 1 0 -12 0zM1302 612 a6 6 0 1 0 12 0 a6 6 0 1 0 -12 0zM1158 660 a6 6 0 1 0 12 0 a6 6 0 1 0 -12 0zM1230 612 a6 6 0 1 0 12 0 a6 6 0 1 0 -12 0zM1014 564 a6 6 0 1 0 12 0 a6 6 0 1 0 -12 0z" fill="rgba(221, 212, 48, 1)"></path><path d="M1764 708L1740 684L1716 684L1692 684M1860 708L1836 684L1812 684L1788 684L1764 684M1956 708L1932 708L1908 708L1884 708L1860 708L1836 708L1812 708L1788 708L1764 708L1740 708L1716 708L1692 708L1668 708" stroke="rgba(90, 70, 219, 1)" stroke-width="4"></path><path d="M1662 708 a6 6 0 1 0 12 0 a6 6 0 1 0 -12 0zM1686 684 a6 6 0 1 0 12 0 a6 6 0 1 0 -12 0zM1758 684 a6 6 0 1 0 12 0 a6 6 0 1 0 -12 0z" fill="rgba(90, 70, 219, 1)"></path><path d="M1692 540L1668 564M1788 564L1764 540L1740 540L1716 540M1956 564L1932 564L1908 564L1884 564L1860 564L1836 564L1812 564L1788 564L1764 564L1740 564L1716 564L1692 540L1668 540" stroke="rgba(221, 212, 48, 1)" stroke-width="4"></path><path d="M1662 540 a6 6 0 1 0 12 0 a6 6 0 1 0 -12 0zM1662 564 a6 6 0 1 0 12 0 a6 6 0 1 0 -12 0zM1710 540 a6 6 0 1 0 12 0 a6 6 0 1 0 -12 0z" fill="rgba(221, 212, 48, 1)"></path><path d="M1452 756L1428 732L1404 732L1380 732L1356 732L1332 732L1308 732L1284 732L1260 732L1236 732L1212 732L1188 732L1164 732M1644 732L1620 708L1596 708L1572 708L1548 708L1524 708L1500 708M1116 756L1092 756M1500 732L1476 756M1908 732L1884 756L1860 756L1836 756L1812 756L1788 756M1092 732L1068 708M1620 732L1596 756L1572 756M1716 732L1692 756L1668 756L1644 756L1620 756L1596 780L1572 780L1548 780L1524 780L1500 780M1476 732L1452 732M1524 732L1500 756M1956 732L1932 732L1908 732L1884 732L1860 732L1836 732L1812 732L1788 732L1764 732L1740 732L1716 732L1692 732L1668 732L1644 732L1620 732L1596 732L1572 732L1548 732L1524 732L1500 732L1476 732L1452 756L1428 756L1404 756L1380 756L1356 756L1332 756L1308 756L1284 756L1260 756L1236 756L1212 756L1188 756L1164 756L1140 756L1116 756L1092 732L1068 732L1044 732L1020 756L996 756" stroke="rgba(207, 206, 215, 1)" stroke-width="4"></path><path d="M990 756 a6 6 0 1 0 12 0 a6 6 0 1 0 -12 0zM1158 732 a6 6 0 1 0 12 0 a6 6 0 1 0 -12 0zM1494 708 a6 6 0 1 0 12 0 a6 6 0 1 0 -12 0zM1086 756 a6 6 0 1 0 12 0 a6 6 0 1 0 -12 0zM1470 756 a6 6 0 1 0 12 0 a6 6 0 1 0 -12 0zM1782 756 a6 6 0 1 0 12 0 a6 6 0 1 0 -12 0zM1062 708 a6 6 0 1 0 12 0 a6 6 0 1 0 -12 0zM1566 756 a6 6 0 1 0 12 0 a6 6 0 1 0 -12 0zM1494 780 a6 6 0 1 0 12 0 a6 6 0 1 0 -12 0zM1446 732 a6 6 0 1 0 12 0 a6 6 0 1 0 -12 0zM1494 756 a6 6 0 1 0 12 0 a6 6 0 1 0 -12 0z" fill="rgba(207, 206, 215, 1)"></path><path d="M1956 540L1932 540L1908 540L1884 540L1860 540L1836 540" stroke="rgba(90, 70, 219, 1)" stroke-width="4"></path><path d="M1830 540 a6 6 0 1 0 12 0 a6 6 0 1 0 -12 0z" fill="rgba(90, 70, 219, 1)"></path><path d="M1740 780L1716 756M1932 756L1908 756M1764 780L1740 756M1956 756L1932 756L1908 780L1884 780L1860 780L1836 780L1812 780L1788 780L1764 780L1740 780L1716 780L1692 780" stroke="rgba(207, 206, 215, 1)" stroke-width="4"></path><path d="M1686 780 a6 6 0 1 0 12 0 a6 6 0 1 0 -12 0zM1710 756 a6 6 0 1 0 12 0 a6 6 0 1 0 -12 0zM1902 756 a6 6 0 1 0 12 0 a6 6 0 1 0 -12 0zM1734 756 a6 6 0 1 0 12 0 a6 6 0 1 0 -12 0z" fill="rgba(207, 206, 215, 1)"></path><path d="M1836 516L1812 492M1620 516L1596 516L1572 516L1548 540L1524 540M1644 516L1620 492M1764 516L1740 492L1716 492M1956 516L1932 516L1908 516L1884 516L1860 516L1836 516L1812 516L1788 516L1764 516L1740 516L1716 516L1692 516L1668 516L1644 516L1620 516L1596 492L1572 492" stroke="rgba(221, 212, 48, 1)" stroke-width="4"></path><path d="M1566 492 a6 6 0 1 0 12 0 a6 6 0 1 0 -12 0zM1806 492 a6 6 0 1 0 12 0 a6 6 0 1 0 -12 0zM1518 540 a6 6 0 1 0 12 0 a6 6 0 1 0 -12 0zM1614 492 a6 6 0 1 0 12 0 a6 6 0 1 0 -12 0zM1710 492 a6 6 0 1 0 12 0 a6 6 0 1 0 -12 0z" fill="rgba(221, 212, 48, 1)"></path><path d="M1284 780L1260 804L1236 804L1212 804L1188 804M1428 780L1404 804M1836 804L1812 828M1692 804L1668 828L1644 828L1620 828L1596 828L1572 828L1548 828L1524 828L1500 828L1476 828M1788 804L1764 828L1740 828L1716 828L1692 828L1668 852M1476 780L1452 804L1428 804M1332 780L1308 804L1284 804L1260 828L1236 828L1212 828M1956 780L1932 780L1908 804L1884 804L1860 804L1836 804L1812 804L1788 804L1764 804L1740 804L1716 804L1692 804L1668 804L1644 804L1620 804L1596 804L1572 804L1548 804L1524 804L1500 804L1476 780L1452 780L1428 780L1404 780L1380 780L1356 780L1332 780L1308 780L1284 780L1260 780L1236 780" stroke="rgba(90, 70, 219, 1)" stroke-width="4"></path><path d="M1230 780 a6 6 0 1 0 12 0 a6 6 0 1 0 -12 0zM1182 804 a6 6 0 1 0 12 0 a6 6 0 1 0 -12 0zM1398 804 a6 6 0 1 0 12 0 a6 6 0 1 0 -12 0zM1806 828 a6 6 0 1 0 12 0 a6 6 0 1 0 -12 0zM1470 828 a6 6 0 1 0 12 0 a6 6 0 1 0 -12 0zM1662 852 a6 6 0 1 0 12 0 a6 6 0 1 0 -12 0zM1422 804 a6 6 0 1 0 12 0 a6 6 0 1 0 -12 0zM1206 828 a6 6 0 1 0 12 0 a6 6 0 1 0 -12 0z" fill="rgba(90, 70, 219, 1)"></path><path d="M1668 468L1644 444L1620 444L1596 444L1572 444L1548 444L1524 444M1188 468L1164 492L1140 492L1116 492L1092 492L1068 492L1044 516L1020 516L996 516M1332 468L1308 492L1284 492L1260 492L1236 492L1212 492L1188 492L1164 516L1140 516L1116 516M1476 468L1452 492M1140 468L1116 444L1092 444L1068 444L1044 444L1020 444L996 444L972 444L948 444L924 444L900 444L876 444L852 444M1020 468L996 492L972 492L948 492M1764 468L1740 444L1716 444L1692 444L1668 444M1380 468L1356 492L1332 492L1308 516L1284 516L1260 516L1236 516L1212 516L1188 516M1788 468L1764 444M1548 468L1524 492L1500 492L1476 492M1956 492L1932 492L1908 492L1884 468L1860 468L1836 468L1812 468L1788 468L1764 468L1740 468L1716 468L1692 468L1668 468L1644 468L1620 468L1596 468L1572 468L1548 468L1524 468L1500 468L1476 468L1452 468L1428 468L1404 468L1380 468L1356 468L1332 468L1308 468L1284 468L1260 468L1236 468L1212 468L1188 468L1164 468L1140 468L1116 468L1092 468L1068 468L1044 468L1020 468L996 468L972 468" stroke="rgba(207, 206, 215, 1)" stroke-width="4"></path><path d="M966 468 a6 6 0 1 0 12 0 a6 6 0 1 0 -12 0zM1518 444 a6 6 0 1 0 12 0 a6 6 0 1 0 -12 0zM990 516 a6 6 0 1 0 12 0 a6 6 0 1 0 -12 0zM1110 516 a6 6 0 1 0 12 0 a6 6 0 1 0 -12 0zM1446 492 a6 6 0 1 0 12 0 a6 6 0 1 0 -12 0zM846 444 a6 6 0 1 0 12 0 a6 6 0 1 0 -12 0zM942 492 a6 6 0 1 0 12 0 a6 6 0 1 0 -12 0zM1662 444 a6 6 0 1 0 12 0 a6 6 0 1 0 -12 0zM1182 516 a6 6 0 1 0 12 0 a6 6 0 1 0 -12 0zM1758 444 a6 6 0 1 0 12 0 a6 6 0 1 0 -12 0zM1470 492 a6 6 0 1 0 12 0 a6 6 0 1 0 -12 0z" fill="rgba(207, 206, 215, 1)"></path><path d="M1956 804L1932 804L1908 828L1884 828" stroke="rgba(221, 212, 48, 1)" stroke-width="4"></path><path d="M1878 828 a6 6 0 1 0 12 0 a6 6 0 1 0 -12 0z" fill="rgba(221, 212, 48, 1)"></path><path d="M1836 420L1812 444L1788 444M1452 444L1428 420L1404 420L1380 420L1356 420M1212 444L1188 420L1164 420L1140 420L1116 420L1092 396L1068 396L1044 396L1020 396M1524 420L1500 420L1476 420M1236 444L1212 420L1188 396L1164 396L1140 396M1308 444L1284 420L1260 420L1236 420M1884 444L1860 444L1836 444M1956 468L1932 468L1908 468L1884 444L1860 420L1836 420L1812 420L1788 420L1764 420L1740 420L1716 420L1692 420L1668 420L1644 420L1620 420L1596 420L1572 420L1548 420L1524 420L1500 444L1476 444L1452 444L1428 444L1404 444L1380 444L1356 444L1332 444L1308 444L1284 444L1260 444L1236 444L1212 444L1188 444L1164 444" stroke="rgba(207, 206, 215, 1)" stroke-width="4"></path><path d="M1158 444 a6 6 0 1 0 12 0 a6 6 0 1 0 -12 0zM1782 444 a6 6 0 1 0 12 0 a6 6 0 1 0 -12 0zM1350 420 a6 6 0 1 0 12 0 a6 6 0 1 0 -12 0zM1014 396 a6 6 0 1 0 12 0 a6 6 0 1 0 -12 0zM1470 420 a6 6 0 1 0 12 0 a6 6 0 1 0 -12 0zM1134 396 a6 6 0 1 0 12 0 a6 6 0 1 0 -12 0zM1230 420 a6 6 0 1 0 12 0 a6 6 0 1 0 -12 0zM1830 444 a6 6 0 1 0 12 0 a6 6 0 1 0 -12 0z" fill="rgba(207, 206, 215, 1)"></path><path d="M1884 876L1860 852L1836 852L1812 852L1788 852M1812 900L1788 876L1764 876L1740 876L1716 876M1836 900L1812 876M1956 828L1932 828L1908 852L1884 876L1860 876L1836 900L1812 900L1788 900L1764 900L1740 900" stroke="rgba(90, 70, 219, 1)" stroke-width="4"></path><path d="M1734 900 a6 6 0 1 0 12 0 a6 6 0 1 0 -12 0zM1782 852 a6 6 0 1 0 12 0 a6 6 0 1 0 -12 0zM1710 876 a6 6 0 1 0 12 0 a6 6 0 1 0 -12 0zM1806 876 a6 6 0 1 0 12 0 a6 6 0 1 0 -12 0z" fill="rgba(90, 70, 219, 1)"></path><path d="M1668 396L1644 372L1620 372L1596 372L1572 372M1332 396L1308 420M1236 396L1212 396M1140 372L1116 348L1092 348L1068 348M1188 372L1164 348L1140 348L1116 324M1260 396L1236 372M1212 372L1188 348L1164 324L1140 324L1116 300M1956 444L1932 444L1908 444L1884 420L1860 396L1836 396L1812 396L1788 396L1764 396L1740 396L1716 396L1692 396L1668 396L1644 396L1620 396L1596 396L1572 396L1548 396L1524 396L1500 396L1476 396L1452 396L1428 396L1404 396L1380 396L1356 396L1332 396L1308 396L1284 396L1260 396L1236 396L1212 372L1188 372L1164 372L1140 372L1116 372L1092 372" stroke="rgba(207, 206, 215, 1)" stroke-width="4"></path><path d="M1086 372 a6 6 0 1 0 12 0 a6 6 0 1 0 -12 0zM1566 372 a6 6 0 1 0 12 0 a6 6 0 1 0 -12 0zM1302 420 a6 6 0 1 0 12 0 a6 6 0 1 0 -12 0zM1206 396 a6 6 0 1 0 12 0 a6 6 0 1 0 -12 0zM1062 348 a6 6 0 1 0 12 0 a6 6 0 1 0 -12 0zM1110 324 a6 6 0 1 0 12 0 a6 6 0 1 0 -12 0zM1230 372 a6 6 0 1 0 12 0 a6 6 0 1 0 -12 0zM1110 300 a6 6 0 1 0 12 0 a6 6 0 1 0 -12 0z" fill="rgba(207, 206, 215, 1)"></path><path d="M1644 924L1620 948M1572 924L1548 900L1524 876M1692 924L1668 900L1644 900L1620 900L1596 900M1500 924L1476 948L1452 948L1428 972L1404 972M1668 924L1644 948L1620 972L1596 972M1956 852L1932 852L1908 876L1884 900L1860 900L1836 924L1812 924L1788 924L1764 924L1740 924L1716 924L1692 924L1668 924L1644 924L1620 924L1596 924L1572 924L1548 924L1524 924L1500 924L1476 924" stroke="rgba(207, 206, 215, 1)" stroke-width="4"></path><path d="M1470 924 a6 6 0 1 0 12 0 a6 6 0 1 0 -12 0zM1614 948 a6 6 0 1 0 12 0 a6 6 0 1 0 -12 0zM1518 876 a6 6 0 1 0 12 0 a6 6 0 1 0 -12 0zM1590 900 a6 6 0 1 0 12 0 a6 6 0 1 0 -12 0zM1398 972 a6 6 0 1 0 12 0 a6 6 0 1 0 -12 0zM1590 972 a6 6 0 1 0 12 0 a6 6 0 1 0 -12 0z" fill="rgba(207, 206, 215, 1)"></path><path d="M1260 348L1236 324L1212 324L1188 324L1164 300M1356 372L1332 348L1308 324L1284 324M1284 372L1260 372M1500 372L1476 348L1452 348L1428 348L1404 348M1548 348L1524 348L1500 348M1380 372L1356 348L1332 324L1308 300L1284 300L1260 300M1956 420L1932 420L1908 420L1884 396L1860 372L1836 372L1812 372L1788 372L1764 372L1740 372L1716 372L1692 372L1668 348L1644 348L1620 348L1596 348L1572 348L1548 348L1524 372L1500 372L1476 372L1452 372L1428 372L1404 372L1380 372L1356 372L1332 372L1308 372L1284 372L1260 348L1236 348" stroke="rgba(207, 206, 215, 1)" stroke-width="4"></path><path d="M1230 348 a6 6 0 1 0 12 0 a6 6 0 1 0 -12 0zM1158 300 a6 6 0 1 0 12 0 a6 6 0 1 0 -12 0zM1278 324 a6 6 0 1 0 12 0 a6 6 0 1 0 -12 0zM1254 372 a6 6 0 1 0 12 0 a6 6 0 1 0 -12 0zM1398 348 a6 6 0 1 0 12 0 a6 6 0 1 0 -12 0zM1494 348 a6 6 0 1 0 12 0 a6 6 0 1 0 -12 0zM1254 300 a6 6 0 1 0 12 0 a6 6 0 1 0 -12 0z" fill="rgba(207, 206, 215, 1)"></path><path d="M1764 948L1740 972L1716 972L1692 972L1668 972M1956 876L1932 876L1908 900L1884 924L1860 924L1836 948L1812 948L1788 948L1764 948L1740 948L1716 948" stroke="rgba(90, 70, 219, 1)" stroke-width="4"></path><path d="M1710 948 a6 6 0 1 0 12 0 a6 6 0 1 0 -12 0zM1662 972 a6 6 0 1 0 12 0 a6 6 0 1 0 -12 0z" fill="rgba(90, 70, 219, 1)"></path><path d="M1428 300L1404 324M1452 324L1428 324M1404 300L1380 300L1356 300L1332 300L1308 276L1284 276L1260 252L1236 252L1212 252M1956 396L1932 396L1908 396L1884 372L1860 348L1836 348L1812 348L1788 348L1764 348L1740 348L1716 348L1692 348L1668 324L1644 324L1620 324L1596 324L1572 324L1548 324L1524 324L1500 324L1476 324L1452 324L1428 300L1404 300L1380 324" stroke="rgba(221, 212, 48, 1)" stroke-width="4"></path><path d="M1374 324 a6 6 0 1 0 12 0 a6 6 0 1 0 -12 0zM1398 324 a6 6 0 1 0 12 0 a6 6 0 1 0 -12 0zM1422 324 a6 6 0 1 0 12 0 a6 6 0 1 0 -12 0zM1206 252 a6 6 0 1 0 12 0 a6 6 0 1 0 -12 0z" fill="rgba(221, 212, 48, 1)"></path><path d="M1572 1020L1548 996L1524 996L1500 996L1476 996M1500 1020L1476 1044M1596 996L1572 996M1620 996L1596 1020M1788 972L1764 972M1956 900L1932 900L1908 924L1884 948L1860 948L1836 972L1812 972L1788 972L1764 996L1740 996L1716 996L1692 996L1668 996L1644 996L1620 996L1596 996L1572 1020L1548 1020L1524 1020L1500 1020L1476 1020L1452 1020L1428 1020" stroke="rgba(207, 206, 215, 1)" stroke-width="4"></path><path d="M1422 1020 a6 6 0 1 0 12 0 a6 6 0 1 0 -12 0zM1470 996 a6 6 0 1 0 12 0 a6 6 0 1 0 -12 0zM1470 1044 a6 6 0 1 0 12 0 a6 6 0 1 0 -12 0zM1566 996 a6 6 0 1 0 12 0 a6 6 0 1 0 -12 0zM1590 1020 a6 6 0 1 0 12 0 a6 6 0 1 0 -12 0zM1758 972 a6 6 0 1 0 12 0 a6 6 0 1 0 -12 0z" fill="rgba(207, 206, 215, 1)"></path><path d="M1956 372L1932 372L1908 372L1884 348L1860 324L1836 324L1812 324L1788 324L1764 324L1740 324L1716 324L1692 324L1668 300L1644 300L1620 300L1596 300L1572 300L1548 300L1524 300L1500 300L1476 300" stroke="rgba(207, 206, 215, 1)" stroke-width="4"></path><path d="M1470 300 a6 6 0 1 0 12 0 a6 6 0 1 0 -12 0z" fill="rgba(207, 206, 215, 1)"></path><path d="M1956 924L1932 924L1908 948L1884 972L1860 972L1836 996L1812 996L1788 996L1764 1020L1740 1020" stroke="rgba(207, 206, 215, 1)" stroke-width="4"></path><path d="M1734 1020 a6 6 0 1 0 12 0 a6 6 0 1 0 -12 0z" fill="rgba(207, 206, 215, 1)"></path><path d="M1452 276L1428 252L1404 252M1476 276L1452 252L1428 228L1404 228M1740 300L1716 276L1692 276M1764 300L1740 276M1500 276L1476 252L1452 228L1428 204M1956 348L1932 348L1908 324L1884 324L1860 300L1836 300L1812 300L1788 300L1764 300L1740 300L1716 300L1692 300L1668 276L1644 276L1620 276L1596 276L1572 276L1548 276L1524 276L1500 276L1476 276L1452 276L1428 276L1404 276" stroke="rgba(207, 206, 215, 1)" stroke-width="4"></path><path d="M1398 276 a6 6 0 1 0 12 0 a6 6 0 1 0 -12 0zM1398 252 a6 6 0 1 0 12 0 a6 6 0 1 0 -12 0zM1398 228 a6 6 0 1 0 12 0 a6 6 0 1 0 -12 0zM1686 276 a6 6 0 1 0 12 0 a6 6 0 1 0 -12 0zM1734 276 a6 6 0 1 0 12 0 a6 6 0 1 0 -12 0zM1422 204 a6 6 0 1 0 12 0 a6 6 0 1 0 -12 0z" fill="rgba(207, 206, 215, 1)"></path><path d="M1164 1044L1140 1068L1116 1068M1404 1068L1380 1092L1356 1092L1332 1092M1548 1092L1524 1116L1500 1116L1476 1116L1452 1116M1884 996L1860 1020L1836 1044L1812 1044L1788 1044L1764 1068L1740 1068L1716 1068L1692 1068L1668 1068M1644 1044L1620 1020M1596 1068L1572 1068L1548 1044M1212 1044L1188 1068L1164 1068M1332 1044L1308 1020M1956 948L1932 948L1908 972L1884 996L1860 996L1836 1020L1812 1020L1788 1020L1764 1044L1740 1044L1716 1044L1692 1044L1668 1044L1644 1044L1620 1044L1596 1068L1572 1092L1548 1092L1524 1092L1500 1092L1476 1068L1452 1068L1428 1068L1404 1068L1380 1068L1356 1044L1332 1044L1308 1044L1284 1044L1260 1044L1236 1044L1212 1044L1188 1044L1164 1044L1140 1044" stroke="rgba(221, 212, 48, 1)" stroke-width="4"></path><path d="M1134 1044 a6 6 0 1 0 12 0 a6 6 0 1 0 -12 0zM1110 1068 a6 6 0 1 0 12 0 a6 6 0 1 0 -12 0zM1326 1092 a6 6 0 1 0 12 0 a6 6 0 1 0 -12 0zM1446 1116 a6 6 0 1 0 12 0 a6 6 0 1 0 -12 0zM1662 1068 a6 6 0 1 0 12 0 a6 6 0 1 0 -12 0zM1614 1020 a6 6 0 1 0 12 0 a6 6 0 1 0 -12 0zM1542 1044 a6 6 0 1 0 12 0 a6 6 0 1 0 -12 0zM1158 1068 a6 6 0 1 0 12 0 a6 6 0 1 0 -12 0zM1302 1020 a6 6 0 1 0 12 0 a6 6 0 1 0 -12 0z" fill="rgba(221, 212, 48, 1)"></path><path d="M924 204L900 180L876 180L852 180L828 180L804 180M1092 180L1068 156L1044 156L1020 156L996 132L972 132L948 108L924 108M996 204L972 228L948 228L924 228L900 228L876 228L852 228M1188 156L1164 132L1140 132L1116 132L1092 132M1812 276L1788 252L1764 228L1740 228L1716 228M1500 204L1476 204L1452 204M1668 252L1644 228L1620 228M1428 180L1404 156L1380 132L1356 108M1860 276L1836 252L1812 252L1788 228L1764 204L1740 180M1020 180L996 156L972 156M1548 252L1524 252L1500 252L1476 228M1956 324L1932 324L1908 300L1884 300L1860 276L1836 276L1812 276L1788 276L1764 252L1740 252L1716 252L1692 252L1668 252L1644 252L1620 252L1596 252L1572 252L1548 252L1524 228L1500 204L1476 180L1452 180L1428 180L1404 180L1380 180L1356 180L1332 180L1308 180L1284 180L1260 156L1236 156L1212 156L1188 156L1164 156L1140 156L1116 156L1092 180L1068 180L1044 180L1020 180L996 204L972 204L948 204L924 204L900 204" stroke="rgba(207, 206, 215, 1)" stroke-width="4"></path><path d="M894 204 a6 6 0 1 0 12 0 a6 6 0 1 0 -12 0zM798 180 a6 6 0 1 0 12 0 a6 6 0 1 0 -12 0zM918 108 a6 6 0 1 0 12 0 a6 6 0 1 0 -12 0zM846 228 a6 6 0 1 0 12 0 a6 6 0 1 0 -12 0zM1086 132 a6 6 0 1 0 12 0 a6 6 0 1 0 -12 0zM1710 228 a6 6 0 1 0 12 0 a6 6 0 1 0 -12 0zM1446 204 a6 6 0 1 0 12 0 a6 6 0 1 0 -12 0zM1614 228 a6 6 0 1 0 12 0 a6 6 0 1 0 -12 0zM1350 108 a6 6 0 1 0 12 0 a6 6 0 1 0 -12 0zM1734 180 a6 6 0 1 0 12 0 a6 6 0 1 0 -12 0zM966 156 a6 6 0 1 0 12 0 a6 6 0 1 0 -12 0zM1470 228 a6 6 0 1 0 12 0 a6 6 0 1 0 -12 0z" fill="rgba(207, 206, 215, 1)"></path></g></g><defs><mask id="SvgjsMask1016"><rect width="1920" height="1280" fill="#ffffff"></rect></mask><mask id="SvgjsMask1017"><rect width="1920" height="1280" fill="white"></rect><path d="M1737 612 a3 3 0 1 0 6 0 a3 3 0 1 0 -6 0zM1881 636 a3 3 0 1 0 6 0 a3 3 0 1 0 -6 0zM1713 636 a3 3 0 1 0 6 0 a3 3 0 1 0 -6 0zM1785 636 a3 3 0 1 0 6 0 a3 3 0 1 0 -6 0z" fill="black"></path><path d="M1905 660 a3 3 0 1 0 6 0 a3 3 0 1 0 -6 0z" fill="black"></path><path d="M1905 684 a3 3 0 1 0 6 0 a3 3 0 1 0 -6 0z" fill="black"></path><path d="M1065 588 a3 3 0 1 0 6 0 a3 3 0 1 0 -6 0zM1113 612 a3 3 0 1 0 6 0 a3 3 0 1 0 -6 0zM1545 612 a3 3 0 1 0 6 0 a3 3 0 1 0 -6 0zM1041 612 a3 3 0 1 0 6 0 a3 3 0 1 0 -6 0zM1473 564 a3 3 0 1 0 6 0 a3 3 0 1 0 -6 0zM969 540 a3 3 0 1 0 6 0 a3 3 0 1 0 -6 0zM1305 612 a3 3 0 1 0 6 0 a3 3 0 1 0 -6 0zM1161 660 a3 3 0 1 0 6 0 a3 3 0 1 0 -6 0zM1233 612 a3 3 0 1 0 6 0 a3 3 0 1 0 -6 0zM1017 564 a3 3 0 1 0 6 0 a3 3 0 1 0 -6 0z" fill="black"></path><path d="M1665 708 a3 3 0 1 0 6 0 a3 3 0 1 0 -6 0zM1689 684 a3 3 0 1 0 6 0 a3 3 0 1 0 -6 0zM1761 684 a3 3 0 1 0 6 0 a3 3 0 1 0 -6 0z" fill="black"></path><path d="M1665 540 a3 3 0 1 0 6 0 a3 3 0 1 0 -6 0zM1665 564 a3 3 0 1 0 6 0 a3 3 0 1 0 -6 0zM1713 540 a3 3 0 1 0 6 0 a3 3 0 1 0 -6 0z" fill="black"></path><path d="M993 756 a3 3 0 1 0 6 0 a3 3 0 1 0 -6 0zM1161 732 a3 3 0 1 0 6 0 a3 3 0 1 0 -6 0zM1497 708 a3 3 0 1 0 6 0 a3 3 0 1 0 -6 0zM1089 756 a3 3 0 1 0 6 0 a3 3 0 1 0 -6 0zM1473 756 a3 3 0 1 0 6 0 a3 3 0 1 0 -6 0zM1785 756 a3 3 0 1 0 6 0 a3 3 0 1 0 -6 0zM1065 708 a3 3 0 1 0 6 0 a3 3 0 1 0 -6 0zM1569 756 a3 3 0 1 0 6 0 a3 3 0 1 0 -6 0zM1497 780 a3 3 0 1 0 6 0 a3 3 0 1 0 -6 0zM1449 732 a3 3 0 1 0 6 0 a3 3 0 1 0 -6 0zM1497 756 a3 3 0 1 0 6 0 a3 3 0 1 0 -6 0z" fill="black"></path><path d="M1833 540 a3 3 0 1 0 6 0 a3 3 0 1 0 -6 0z" fill="black"></path><path d="M1689 780 a3 3 0 1 0 6 0 a3 3 0 1 0 -6 0zM1713 756 a3 3 0 1 0 6 0 a3 3 0 1 0 -6 0zM1905 756 a3 3 0 1 0 6 0 a3 3 0 1 0 -6 0zM1737 756 a3 3 0 1 0 6 0 a3 3 0 1 0 -6 0z" fill="black"></path><path d="M1569 492 a3 3 0 1 0 6 0 a3 3 0 1 0 -6 0zM1809 492 a3 3 0 1 0 6 0 a3 3 0 1 0 -6 0zM1521 540 a3 3 0 1 0 6 0 a3 3 0 1 0 -6 0zM1617 492 a3 3 0 1 0 6 0 a3 3 0 1 0 -6 0zM1713 492 a3 3 0 1 0 6 0 a3 3 0 1 0 -6 0z" fill="black"></path><path d="M1233 780 a3 3 0 1 0 6 0 a3 3 0 1 0 -6 0zM1185 804 a3 3 0 1 0 6 0 a3 3 0 1 0 -6 0zM1401 804 a3 3 0 1 0 6 0 a3 3 0 1 0 -6 0zM1809 828 a3 3 0 1 0 6 0 a3 3 0 1 0 -6 0zM1473 828 a3 3 0 1 0 6 0 a3 3 0 1 0 -6 0zM1665 852 a3 3 0 1 0 6 0 a3 3 0 1 0 -6 0zM1425 804 a3 3 0 1 0 6 0 a3 3 0 1 0 -6 0zM1209 828 a3 3 0 1 0 6 0 a3 3 0 1 0 -6 0z" fill="black"></path><path d="M969 468 a3 3 0 1 0 6 0 a3 3 0 1 0 -6 0zM1521 444 a3 3 0 1 0 6 0 a3 3 0 1 0 -6 0zM993 516 a3 3 0 1 0 6 0 a3 3 0 1 0 -6 0zM1113 516 a3 3 0 1 0 6 0 a3 3 0 1 0 -6 0zM1449 492 a3 3 0 1 0 6 0 a3 3 0 1 0 -6 0zM849 444 a3 3 0 1 0 6 0 a3 3 0 1 0 -6 0zM945 492 a3 3 0 1 0 6 0 a3 3 0 1 0 -6 0zM1665 444 a3 3 0 1 0 6 0 a3 3 0 1 0 -6 0zM1185 516 a3 3 0 1 0 6 0 a3 3 0 1 0 -6 0zM1761 444 a3 3 0 1 0 6 0 a3 3 0 1 0 -6 0zM1473 492 a3 3 0 1 0 6 0 a3 3 0 1 0 -6 0z" fill="black"></path><path d="M1881 828 a3 3 0 1 0 6 0 a3 3 0 1 0 -6 0z" fill="black"></path><path d="M1161 444 a3 3 0 1 0 6 0 a3 3 0 1 0 -6 0zM1785 444 a3 3 0 1 0 6 0 a3 3 0 1 0 -6 0zM1353 420 a3 3 0 1 0 6 0 a3 3 0 1 0 -6 0zM1017 396 a3 3 0 1 0 6 0 a3 3 0 1 0 -6 0zM1473 420 a3 3 0 1 0 6 0 a3 3 0 1 0 -6 0zM1137 396 a3 3 0 1 0 6 0 a3 3 0 1 0 -6 0zM1233 420 a3 3 0 1 0 6 0 a3 3 0 1 0 -6 0zM1833 444 a3 3 0 1 0 6 0 a3 3 0 1 0 -6 0z" fill="black"></path><path d="M1737 900 a3 3 0 1 0 6 0 a3 3 0 1 0 -6 0zM1785 852 a3 3 0 1 0 6 0 a3 3 0 1 0 -6 0zM1713 876 a3 3 0 1 0 6 0 a3 3 0 1 0 -6 0zM1809 876 a3 3 0 1 0 6 0 a3 3 0 1 0 -6 0z" fill="black"></path><path d="M1089 372 a3 3 0 1 0 6 0 a3 3 0 1 0 -6 0zM1569 372 a3 3 0 1 0 6 0 a3 3 0 1 0 -6 0zM1305 420 a3 3 0 1 0 6 0 a3 3 0 1 0 -6 0zM1209 396 a3 3 0 1 0 6 0 a3 3 0 1 0 -6 0zM1065 348 a3 3 0 1 0 6 0 a3 3 0 1 0 -6 0zM1113 324 a3 3 0 1 0 6 0 a3 3 0 1 0 -6 0zM1233 372 a3 3 0 1 0 6 0 a3 3 0 1 0 -6 0zM1113 300 a3 3 0 1 0 6 0 a3 3 0 1 0 -6 0z" fill="black"></path><path d="M1473 924 a3 3 0 1 0 6 0 a3 3 0 1 0 -6 0zM1617 948 a3 3 0 1 0 6 0 a3 3 0 1 0 -6 0zM1521 876 a3 3 0 1 0 6 0 a3 3 0 1 0 -6 0zM1593 900 a3 3 0 1 0 6 0 a3 3 0 1 0 -6 0zM1401 972 a3 3 0 1 0 6 0 a3 3 0 1 0 -6 0zM1593 972 a3 3 0 1 0 6 0 a3 3 0 1 0 -6 0z" fill="black"></path><path d="M1233 348 a3 3 0 1 0 6 0 a3 3 0 1 0 -6 0zM1161 300 a3 3 0 1 0 6 0 a3 3 0 1 0 -6 0zM1281 324 a3 3 0 1 0 6 0 a3 3 0 1 0 -6 0zM1257 372 a3 3 0 1 0 6 0 a3 3 0 1 0 -6 0zM1401 348 a3 3 0 1 0 6 0 a3 3 0 1 0 -6 0zM1497 348 a3 3 0 1 0 6 0 a3 3 0 1 0 -6 0zM1257 300 a3 3 0 1 0 6 0 a3 3 0 1 0 -6 0z" fill="black"></path><path d="M1713 948 a3 3 0 1 0 6 0 a3 3 0 1 0 -6 0zM1665 972 a3 3 0 1 0 6 0 a3 3 0 1 0 -6 0z" fill="black"></path><path d="M1377 324 a3 3 0 1 0 6 0 a3 3 0 1 0 -6 0zM1401 324 a3 3 0 1 0 6 0 a3 3 0 1 0 -6 0zM1425 324 a3 3 0 1 0 6 0 a3 3 0 1 0 -6 0zM1209 252 a3 3 0 1 0 6 0 a3 3 0 1 0 -6 0z" fill="black"></path><path d="M1425 1020 a3 3 0 1 0 6 0 a3 3 0 1 0 -6 0zM1473 996 a3 3 0 1 0 6 0 a3 3 0 1 0 -6 0zM1473 1044 a3 3 0 1 0 6 0 a3 3 0 1 0 -6 0zM1569 996 a3 3 0 1 0 6 0 a3 3 0 1 0 -6 0zM1593 1020 a3 3 0 1 0 6 0 a3 3 0 1 0 -6 0zM1761 972 a3 3 0 1 0 6 0 a3 3 0 1 0 -6 0z" fill="black"></path><path d="M1473 300 a3 3 0 1 0 6 0 a3 3 0 1 0 -6 0z" fill="black"></path><path d="M1737 1020 a3 3 0 1 0 6 0 a3 3 0 1 0 -6 0z" fill="black"></path><path d="M1401 276 a3 3 0 1 0 6 0 a3 3 0 1 0 -6 0zM1401 252 a3 3 0 1 0 6 0 a3 3 0 1 0 -6 0zM1401 228 a3 3 0 1 0 6 0 a3 3 0 1 0 -6 0zM1689 276 a3 3 0 1 0 6 0 a3 3 0 1 0 -6 0zM1737 276 a3 3 0 1 0 6 0 a3 3 0 1 0 -6 0zM1425 204 a3 3 0 1 0 6 0 a3 3 0 1 0 -6 0z" fill="black"></path><path d="M1137 1044 a3 3 0 1 0 6 0 a3 3 0 1 0 -6 0zM1113 1068 a3 3 0 1 0 6 0 a3 3 0 1 0 -6 0zM1329 1092 a3 3 0 1 0 6 0 a3 3 0 1 0 -6 0zM1449 1116 a3 3 0 1 0 6 0 a3 3 0 1 0 -6 0zM1665 1068 a3 3 0 1 0 6 0 a3 3 0 1 0 -6 0zM1617 1020 a3 3 0 1 0 6 0 a3 3 0 1 0 -6 0zM1545 1044 a3 3 0 1 0 6 0 a3 3 0 1 0 -6 0zM1161 1068 a3 3 0 1 0 6 0 a3 3 0 1 0 -6 0zM1305 1020 a3 3 0 1 0 6 0 a3 3 0 1 0 -6 0z" fill="black"></path><path d="M897 204 a3 3 0 1 0 6 0 a3 3 0 1 0 -6 0zM801 180 a3 3 0 1 0 6 0 a3 3 0 1 0 -6 0zM921 108 a3 3 0 1 0 6 0 a3 3 0 1 0 -6 0zM849 228 a3 3 0 1 0 6 0 a3 3 0 1 0 -6 0zM1089 132 a3 3 0 1 0 6 0 a3 3 0 1 0 -6 0zM1713 228 a3 3 0 1 0 6 0 a3 3 0 1 0 -6 0zM1449 204 a3 3 0 1 0 6 0 a3 3 0 1 0 -6 0zM1617 228 a3 3 0 1 0 6 0 a3 3 0 1 0 -6 0zM1353 108 a3 3 0 1 0 6 0 a3 3 0 1 0 -6 0zM1737 180 a3 3 0 1 0 6 0 a3 3 0 1 0 -6 0zM969 156 a3 3 0 1 0 6 0 a3 3 0 1 0 -6 0zM1473 228 a3 3 0 1 0 6 0 a3 3 0 1 0 -6 0z" fill="black"></path></mask></defs></svg>