<svg viewBox="0 0 500 500" xmlns="http://www.w3.org/2000/svg" xmlns:xlink="http://www.w3.org/1999/xlink" width="100%" id="blobSvg">
  <defs>
    <pattern id="pattern" x="0" y="0" width="80" height="80" patternUnits="userSpaceOnUse" fill="#d1d8e0">
      <path d="M0 0h40v40H0V0zm40 40h40v40H40V40zm0-40h2l-2 2V0zm0 4l4-4h2l-6 6V4zm0 4l8-8h2L40 10V8zm0 4L52 0h2L40 14v-2zm0 4L56 0h2L40 18v-2zm0 4L60 0h2L40 22v-2zm0 4L64 0h2L40 26v-2zm0 4L68 0h2L40 30v-2zm0 4L72 0h2L40 34v-2zm0 4L76 0h2L40 38v-2zm0 4L80 0v2L42 40h-2zm4 0L80 4v2L46 40h-2zm4 0L80 8v2L50 40h-2zm4 0l28-28v2L54 40h-2zm4 0l24-24v2L58 40h-2zm4 0l20-20v2L62 40h-2zm4 0l16-16v2L66 40h-2zm4 0l12-12v2L70 40h-2zm4 0l8-8v2l-6 6h-2zm4 0l4-4v2l-2 2h-2z"></path>
    </pattern>
  </defs>
  <path id="blob" d="M459,290Q429,330,411,369.5Q393,409,346,405Q299,401,263.5,432Q228,463,186,448.5Q144,434,127.5,392.5Q111,351,69,324Q27,297,37.5,252Q48,207,62.5,166Q77,125,107,89.5Q137,54,180.5,29Q224,4,273,17Q322,30,348,71Q374,112,396.5,143.5Q419,175,454,212.5Q489,250,459,290Z" fill="url(#pattern)" stroke-width="7px" stroke="#d1d8e0"></path>
</svg>