<svg viewBox="0 0 500 500" xmlns="http://www.w3.org/2000/svg" xmlns:xlink="http://www.w3.org/1999/xlink" width="100%" id="blobSvg">
  <defs>
    <pattern id="pattern" x="0" y="0" width="28" height="49" patternUnits="userSpaceOnUse" fill="#d1d8e0">
      <path d="M13.99 9.25l13 7.5v15l-13 7.5L1 31.75v-15l12.99-7.5zM3 17.9v12.7l10.99 6.34 11-6.35V17.9l-11-6.34L3 17.9zM0 15l12.98-7.5V0h-2v6.35L0 12.69v2.3zm0 18.5L12.98 41v8h-2v-6.85L0 35.81v-2.3zM15 0v7.5L27.99 15H28v-2.31h-.01L17 6.35V0h-2zm0 49v-8l12.99-7.5H28v2.31h-.01L17 42.15V49h-2z"></path>
    </pattern>
  </defs>
  <path id="blob" d="M486,286.5Q475,323,460,357.5Q445,392,414.5,413Q384,434,354,456.5Q324,479,287,485Q250,491,214.5,480Q179,469,142.5,458.5Q106,448,81.5,419.5Q57,391,39,357.5Q21,324,13.5,287Q6,250,9.5,211.5Q13,173,32,139.5Q51,106,82,83.5Q113,61,145.5,44.5Q178,28,214,18.5Q250,9,288,12Q326,15,357.5,37Q389,59,417.5,83Q446,107,463.5,141Q481,175,489,212.5Q497,250,486,286.5Z" fill="url(#pattern)"></path>
</svg>